<svg width="31" height="31" viewBox="0 0 31 31" fill="none" xmlns="http://www.w3.org/2000/svg">
<path d="M13.2984 14.2995C13.2984 14.7582 13.197 15.1635 12.9944 15.5155C12.8024 15.8675 12.5357 16.1448 12.1944 16.3475C11.853 16.5502 11.469 16.6515 11.0424 16.6515C10.605 16.6515 10.2157 16.5502 9.87437 16.3475C9.53304 16.1448 9.26104 15.8675 9.05837 15.5155C8.86637 15.1635 8.77037 14.7582 8.77037 14.2995C8.77037 13.8408 8.86637 13.4408 9.05837 13.0995C9.26104 12.7475 9.53304 12.4755 9.87437 12.2835C10.2157 12.0808 10.605 11.9795 11.0424 11.9795C11.469 11.9795 11.853 12.0808 12.1944 12.2835C12.5357 12.4755 12.8024 12.7475 12.9944 13.0995C13.197 13.4408 13.2984 13.8408 13.2984 14.2995ZM10.6424 21.7075L14.1944 16.9395C14.4717 16.5768 14.6957 16.1768 14.8664 15.7395C15.0477 15.3022 15.1384 14.8222 15.1384 14.2995C15.1384 13.4675 14.957 12.7582 14.5944 12.1715C14.2317 11.5742 13.741 11.1208 13.1224 10.8115C12.5037 10.4915 11.8104 10.3315 11.0424 10.3315C10.2744 10.3315 9.58104 10.4915 8.96237 10.8115C8.3437 11.1208 7.8477 11.5742 7.47437 12.1715C7.1117 12.7582 6.93037 13.4675 6.93037 14.2995C6.93037 14.8328 7.02104 15.3235 7.20237 15.7715C7.3837 16.2195 7.62904 16.6088 7.93837 16.9395C8.25837 17.2595 8.62104 17.5048 9.02637 17.6755C9.4317 17.8462 9.85837 17.9315 10.3064 17.9315C10.6797 17.9315 11.005 17.8888 11.2824 17.8035C11.5597 17.7182 11.8264 17.5368 12.0824 17.2595L11.7944 17.3075L8.24237 21.7075H10.6424ZM22.4709 14.2995C22.4709 14.7582 22.3695 15.1635 22.1669 15.5155C21.9749 15.8675 21.7082 16.1448 21.3669 16.3475C21.0255 16.5502 20.6415 16.6515 20.2149 16.6515C19.7775 16.6515 19.3882 16.5502 19.0469 16.3475C18.7055 16.1448 18.4335 15.8675 18.2309 15.5155C18.0389 15.1635 17.9429 14.7582 17.9429 14.2995C17.9429 13.8408 18.0389 13.4408 18.2309 13.0995C18.4335 12.7475 18.7055 12.4755 19.0469 12.2835C19.3882 12.0808 19.7775 11.9795 20.2149 11.9795C20.6415 11.9795 21.0255 12.0808 21.3669 12.2835C21.7082 12.4755 21.9749 12.7475 22.1669 13.0995C22.3695 13.4408 22.4709 13.8408 22.4709 14.2995ZM19.8149 21.7075L23.3669 16.9395C23.6442 16.5768 23.8682 16.1768 24.0389 15.7395C24.2202 15.3022 24.3109 14.8222 24.3109 14.2995C24.3109 13.4675 24.1295 12.7582 23.7669 12.1715C23.4042 11.5742 22.9135 11.1208 22.2949 10.8115C21.6762 10.4915 20.9829 10.3315 20.2149 10.3315C19.4469 10.3315 18.7535 10.4915 18.1349 10.8115C17.5162 11.1208 17.0202 11.5742 16.6469 12.1715C16.2842 12.7582 16.1029 13.4675 16.1029 14.2995C16.1029 14.8328 16.1935 15.3235 16.3749 15.7715C16.5562 16.2195 16.8015 16.6088 17.1109 16.9395C17.4309 17.2595 17.7935 17.5048 18.1989 17.6755C18.6042 17.8462 19.0309 17.9315 19.4789 17.9315C19.8522 17.9315 20.1775 17.8888 20.4549 17.8035C20.7322 17.7182 20.9989 17.5368 21.2549 17.2595L20.9669 17.3075L17.4149 21.7075H19.8149Z" fill="#0075FF"/>
<circle cx="15.1304" cy="15.7235" r="14.25" stroke="#0075FF" stroke-width="1.5"/>
</svg>
