<svg width="26" height="26" viewBox="0 0 26 26" fill="none" xmlns="http://www.w3.org/2000/svg">
<path d="M11.272 11.504C11.272 11.9053 11.1833 12.26 11.006 12.568C10.838 12.876 10.6047 13.1187 10.306 13.296C10.0073 13.4733 9.67133 13.562 9.298 13.562C8.91533 13.562 8.57467 13.4733 8.276 13.296C7.97733 13.1187 7.73933 12.876 7.562 12.568C7.394 12.26 7.31 11.9053 7.31 11.504C7.31 11.1027 7.394 10.7527 7.562 10.454C7.73933 10.146 7.97733 9.908 8.276 9.74C8.57467 9.56267 8.91533 9.474 9.298 9.474C9.67133 9.474 10.0073 9.56267 10.306 9.74C10.6047 9.908 10.838 10.146 11.006 10.454C11.1833 10.7527 11.272 11.1027 11.272 11.504ZM8.948 17.986L12.056 13.814C12.2987 13.4967 12.4947 13.1467 12.644 12.764C12.8027 12.3813 12.882 11.9613 12.882 11.504C12.882 10.776 12.7233 10.1553 12.406 9.642C12.0887 9.11933 11.6593 8.72267 11.118 8.452C10.5767 8.172 9.97 8.032 9.298 8.032C8.626 8.032 8.01933 8.172 7.478 8.452C6.93667 8.72267 6.50267 9.11933 6.176 9.642C5.85867 10.1553 5.7 10.776 5.7 11.504C5.7 11.9707 5.77933 12.4 5.938 12.792C6.09667 13.184 6.31133 13.5247 6.582 13.814C6.862 14.094 7.17933 14.3087 7.534 14.458C7.88867 14.6073 8.262 14.682 8.654 14.682C8.98067 14.682 9.26533 14.6447 9.508 14.57C9.75067 14.4953 9.984 14.3367 10.208 14.094L9.956 14.136L6.848 17.986H8.948ZM19.2979 11.504C19.2979 11.9053 19.2093 12.26 19.0319 12.568C18.8639 12.876 18.6306 13.1187 18.3319 13.296C18.0333 13.4733 17.6973 13.562 17.3239 13.562C16.9413 13.562 16.6006 13.4733 16.3019 13.296C16.0033 13.1187 15.7653 12.876 15.5879 12.568C15.4199 12.26 15.3359 11.9053 15.3359 11.504C15.3359 11.1027 15.4199 10.7527 15.5879 10.454C15.7653 10.146 16.0033 9.908 16.3019 9.74C16.6006 9.56267 16.9413 9.474 17.3239 9.474C17.6973 9.474 18.0333 9.56267 18.3319 9.74C18.6306 9.908 18.8639 10.146 19.0319 10.454C19.2093 10.7527 19.2979 11.1027 19.2979 11.504ZM16.9739 17.986L20.0819 13.814C20.3246 13.4967 20.5206 13.1467 20.6699 12.764C20.8286 12.3813 20.9079 11.9613 20.9079 11.504C20.9079 10.776 20.7493 10.1553 20.4319 9.642C20.1146 9.11933 19.6853 8.72267 19.1439 8.452C18.6026 8.172 17.9959 8.032 17.3239 8.032C16.6519 8.032 16.0453 8.172 15.5039 8.452C14.9626 8.72267 14.5286 9.11933 14.2019 9.642C13.8846 10.1553 13.7259 10.776 13.7259 11.504C13.7259 11.9707 13.8053 12.4 13.9639 12.792C14.1226 13.184 14.3373 13.5247 14.6079 13.814C14.8879 14.094 15.2053 14.3087 15.5599 14.458C15.9146 14.6073 16.2879 14.682 16.6799 14.682C17.0066 14.682 17.2913 14.6447 17.5339 14.57C17.7766 14.4953 18.0099 14.3367 18.2339 14.094L17.9819 14.136L14.8739 17.986H16.9739Z" fill="white"/>
<circle cx="13" cy="13" r="12.25" stroke="white" stroke-width="1.5"/>
</svg>
