<svg xmlns="http://www.w3.org/2000/svg" data-name="Layer 3" viewBox="-10 -7 80 80" x="0px" y="0px"><path d="M62,13H57V6a1,1,0,0,0-1-1H51a4,4,0,0,0-8,0H39a4,4,0,0,0-8,0H27a4,4,0,0,0-8,0H15A4,4,0,0,0,7,5H2A1,1,0,0,0,1,6V56a1,1,0,0,0,1,1H7v5a1,1,0,0,0,1,1H62a1,1,0,0,0,1-1V14A1,1,0,0,0,62,13Zm-1,2V25H57V15ZM45,5a2,2,0,0,1,4,0V9a2,2,0,0,1-4,0ZM33,5a2,2,0,0,1,4,0V9a2,2,0,0,1-4,0ZM21,5a2,2,0,0,1,4,0V9a2,2,0,0,1-4,0ZM9,5a2,2,0,0,1,4,0V9A2,2,0,0,1,9,9ZM7,7V9a4,4,0,0,0,8,0V7h4V9a4,4,0,0,0,8,0V7h4V9a4,4,0,0,0,8,0V7h4V9a4,4,0,0,0,8,0V7h4V17H3V7ZM3,19H55V55H3ZM9,61V57H56a1,1,0,0,0,1-1V27h4V61Z"/><path d="M28.11,47A9.09,9.09,0,0,0,37,39.88a1,1,0,0,0-.42-1.05,1,1,0,0,0-1.13,0,5.66,5.66,0,0,1-3.27,1c-3.36,0-6.09-3-6.09-6.67a7.06,7.06,0,0,1,.58-2.83A1,1,0,0,0,25.43,29a9.19,9.19,0,0,0,2.68,18ZM24.17,31.83a9.19,9.19,0,0,0-.1,1.39c0,4.78,3.63,8.67,8.09,8.67a7.39,7.39,0,0,0,2-.27,7,7,0,0,1-6,3.38,7.2,7.2,0,0,1-3.94-13.17Z"/><path d="M31.68,32.8l-.33,2a1,1,0,0,0,1.47,1L34.5,35l1.68.93a1,1,0,0,0,.48.12,1,1,0,0,0,.58-.18,1,1,0,0,0,.41-1l-.33-2,1.4-1.43a1,1,0,0,0-.57-1.68l-1.89-.29-.85-1.82a1,1,0,0,0-1.82,0l-.85,1.82-1.89.29a1,1,0,0,0-.57,1.68Zm1.89-1.51a1,1,0,0,0,.75-.56l.18-.38.18.38a1,1,0,0,0,.75.56l.5.08-.4.4a1,1,0,0,0-.27.86l.08.5-.36-.2a1,1,0,0,0-1,0l-.36.2.08-.5a1,1,0,0,0-.27-.86l-.4-.4Z"/><path d="M42,23H16a1,1,0,0,0-1,1V50a1,1,0,0,0,1,1H42a1,1,0,0,0,1-1V24A1,1,0,0,0,42,23ZM41,49H17V25H41Z"/></svg>