<svg width="18" height="18" viewBox="0 0 18 18" fill="none" xmlns="http://www.w3.org/2000/svg">
<path d="M15.8625 2.14495C15.5759 1.85287 15.2126 1.64786 14.8144 1.55363C14.4162 1.45939 13.9995 1.47979 13.6125 1.61245L2.99998 5.15995C2.57196 5.30005 2.19799 5.56956 1.92969 5.93127C1.66139 6.29299 1.51199 6.72907 1.50211 7.17932C1.49223 7.62958 1.62237 8.07179 1.87455 8.44492C2.12673 8.81806 2.48852 9.10371 2.90998 9.26245L6.83998 10.7624C6.92947 10.7967 7.01094 10.849 7.07933 10.9161C7.14772 10.9832 7.20156 11.0636 7.23748 11.1524L8.73748 15.0899C8.89016 15.5054 9.16724 15.8638 9.53095 16.1161C9.89466 16.3684 10.3273 16.5024 10.77 16.4999H10.8225C11.2732 16.4917 11.7101 16.3427 12.0719 16.0737C12.4337 15.8047 12.7023 15.4292 12.84 14.9999L16.3875 4.37245C16.5165 3.98915 16.5357 3.5774 16.4429 3.18376C16.3501 2.79012 16.1491 2.43028 15.8625 2.14495ZM15 3.89995L11.415 14.5349C11.3733 14.6695 11.2897 14.7873 11.1764 14.871C11.063 14.9546 10.9259 14.9998 10.785 14.9999C10.6449 15.0022 10.5075 14.9619 10.3909 14.8842C10.2744 14.8065 10.1842 14.6951 10.1325 14.5649L8.63248 10.6274C8.52373 10.3413 8.35602 10.0813 8.14024 9.86423C7.92446 9.64716 7.66543 9.4779 7.37998 9.36745L3.44248 7.86745C3.30965 7.81877 3.19546 7.7296 3.11606 7.61251C3.03666 7.49543 2.99605 7.35636 2.99998 7.21495C3.00009 7.07405 3.04529 6.9369 3.12896 6.82354C3.21263 6.71018 3.33037 6.62657 3.46498 6.58495L14.1 3.03745C14.2221 2.98768 14.356 2.97435 14.4855 2.99907C14.615 3.02378 14.7346 3.08548 14.8298 3.17671C14.925 3.26794 14.9917 3.38479 15.0219 3.51314C15.0521 3.64149 15.0445 3.77584 15 3.89995Z" fill="white"/>
<path d="M15.8625 2.14495C15.5759 1.85287 15.2126 1.64786 14.8144 1.55363C14.4162 1.45939 13.9995 1.47979 13.6125 1.61245L2.99998 5.15995C2.57196 5.30005 2.19799 5.56956 1.92969 5.93127C1.66139 6.29299 1.51199 6.72907 1.50211 7.17932C1.49223 7.62958 1.62237 8.07179 1.87455 8.44492C2.12673 8.81806 2.48852 9.10371 2.90998 9.26245L6.83998 10.7624C6.92947 10.7967 7.01094 10.849 7.07933 10.9161C7.14772 10.9832 7.20156 11.0636 7.23748 11.1524L8.73748 15.0899C8.89016 15.5054 9.16724 15.8638 9.53095 16.1161C9.89466 16.3684 10.3273 16.5024 10.77 16.4999H10.8225C11.2732 16.4917 11.7101 16.3427 12.0719 16.0737C12.4337 15.8047 12.7023 15.4292 12.84 14.9999L16.3875 4.37245C16.5165 3.98915 16.5357 3.5774 16.4429 3.18376C16.3501 2.79012 16.1491 2.43028 15.8625 2.14495ZM15 3.89995L11.415 14.5349C11.3733 14.6695 11.2897 14.7873 11.1764 14.871C11.063 14.9546 10.9259 14.9998 10.785 14.9999C10.6449 15.0022 10.5075 14.9619 10.3909 14.8842C10.2744 14.8065 10.1842 14.6951 10.1325 14.5649L8.63248 10.6274C8.52373 10.3413 8.35602 10.0813 8.14024 9.86423C7.92446 9.64716 7.66543 9.4779 7.37998 9.36745L3.44248 7.86745C3.30965 7.81877 3.19546 7.7296 3.11606 7.61251C3.03666 7.49543 2.99605 7.35636 2.99998 7.21495C3.00009 7.07405 3.04529 6.9369 3.12896 6.82354C3.21263 6.71018 3.33037 6.62657 3.46498 6.58495L14.1 3.03745C14.2221 2.98768 14.356 2.97435 14.4855 2.99907C14.615 3.02378 14.7346 3.08548 14.8298 3.17671C14.925 3.26794 14.9917 3.38479 15.0219 3.51314C15.0521 3.64149 15.0445 3.77584 15 3.89995Z" stroke="white"/>
</svg>
