<svg width="31" height="31" viewBox="0 0 31 31" fill="none" xmlns="http://www.w3.org/2000/svg">
<path d="M4.81787 11.236H25.4429V6.54854C25.4429 6.2999 25.3441 6.06144 25.1683 5.88563C24.9925 5.70981 24.754 5.61104 24.5054 5.61104H5.75537C5.50673 5.61104 5.26827 5.70981 5.09246 5.88563C4.91664 6.06144 4.81787 6.2999 4.81787 6.54854V11.236Z" fill="white"/>
<path d="M24.5054 4.67354H21.6929V3.73604C21.6929 3.4874 21.5941 3.24894 21.4183 3.07313C21.2425 2.89731 21.004 2.79854 20.7554 2.79854C20.5067 2.79854 20.2683 2.89731 20.0925 3.07313C19.9166 3.24894 19.8179 3.4874 19.8179 3.73604V4.67354H10.4429V3.73604C10.4429 3.4874 10.3441 3.24894 10.1683 3.07313C9.99247 2.89731 9.75401 2.79854 9.50537 2.79854C9.25673 2.79854 9.01827 2.89731 8.84246 3.07313C8.66664 3.24894 8.56787 3.4874 8.56787 3.73604V4.67354H5.75537C5.25809 4.67354 4.78118 4.87108 4.42955 5.22271C4.07792 5.57434 3.88037 6.05126 3.88037 6.54854V25.2985C3.88037 25.7958 4.07792 26.2727 4.42955 26.6244C4.78118 26.976 5.25809 27.1735 5.75537 27.1735H24.5054C25.0027 27.1735 25.4796 26.976 25.8312 26.6244C26.1828 26.2727 26.3804 25.7958 26.3804 25.2985V6.54854C26.3804 6.05126 26.1828 5.57434 25.8312 5.22271C25.4796 4.87108 25.0027 4.67354 24.5054 4.67354ZM8.56787 6.54854V7.48604C8.56787 7.73468 8.66664 7.97314 8.84246 8.14895C9.01827 8.32477 9.25673 8.42354 9.50537 8.42354C9.75401 8.42354 9.99247 8.32477 10.1683 8.14895C10.3441 7.97314 10.4429 7.73468 10.4429 7.48604V6.54854H19.8179V7.48604C19.8179 7.73468 19.9166 7.97314 20.0925 8.14895C20.2683 8.32477 20.5067 8.42354 20.7554 8.42354C21.004 8.42354 21.2425 8.32477 21.4183 8.14895C21.5941 7.97314 21.6929 7.73468 21.6929 7.48604V6.54854H24.5054V10.2985H5.75537V6.54854H8.56787ZM24.5054 25.2985H5.75537V12.1735H24.5054V25.2985Z" fill="#0075FF"/>
<path d="M13.8882 17.8103L14.9194 16.5095C15.0295 16.372 15.0987 16.2062 15.1189 16.0312C15.1391 15.8562 15.1096 15.679 15.0338 15.52C14.958 15.3609 14.8388 15.2265 14.6901 15.1321C14.5414 15.0376 14.369 14.987 14.1929 14.986H10.9116C10.663 14.986 10.4245 15.0848 10.2487 15.2606C10.0729 15.4364 9.97412 15.6749 9.97412 15.9235C9.97412 16.1722 10.0729 16.4106 10.2487 16.5865C10.4245 16.7623 10.663 16.861 10.9116 16.861H12.2476L11.5913 17.6814C11.4812 17.8189 11.4121 17.9847 11.3918 18.1597C11.3716 18.3347 11.4011 18.5119 11.4769 18.6709C11.5528 18.8299 11.6719 18.9643 11.8206 19.0588C11.9694 19.1532 12.1417 19.2038 12.3179 19.2048C12.5665 19.2048 12.805 19.3036 12.9808 19.4794C13.1566 19.6552 13.2554 19.8937 13.2554 20.1423C13.2554 20.3909 13.1566 20.6294 12.9808 20.8052C12.805 20.981 12.5665 21.0798 12.3179 21.0798C12.0689 21.0787 11.8299 20.9823 11.6499 20.8103C11.5637 20.722 11.4607 20.6519 11.347 20.6041C11.2333 20.5562 11.1112 20.5315 10.9878 20.5315C10.8644 20.5315 10.7423 20.5562 10.6286 20.6041C10.5149 20.6519 10.4119 20.722 10.3257 20.8103C10.1504 20.986 10.0519 21.2241 10.0519 21.4724C10.0519 21.7206 10.1504 21.9587 10.3257 22.1345C10.719 22.5292 11.2208 22.7982 11.7673 22.9073C12.3138 23.0164 12.8803 22.9607 13.3951 22.7472C13.9099 22.5338 14.3496 22.1722 14.6586 21.7085C14.9675 21.2447 15.1317 20.6996 15.1304 20.1423C15.1312 19.6814 15.0182 19.2274 14.8016 18.8206C14.5849 18.4138 14.2711 18.0668 13.8882 17.8103ZM19.3022 15.0798C19.1451 15.0047 18.9705 14.9738 18.7971 14.9903C18.6237 15.0068 18.458 15.0702 18.3179 15.1735L16.4429 16.5798C16.244 16.729 16.1125 16.9511 16.0773 17.1972C16.0421 17.4434 16.1062 17.6934 16.2554 17.8923C16.4064 18.0886 16.6282 18.2181 16.8735 18.2532C17.1187 18.2882 17.3679 18.226 17.5679 18.0798L17.9429 17.7985V22.0173C17.9429 22.2659 18.0416 22.5044 18.2175 22.6802C18.3933 22.856 18.6317 22.9548 18.8804 22.9548C19.129 22.9548 19.3675 22.856 19.5433 22.6802C19.7191 22.5044 19.8179 22.2659 19.8179 22.0173V15.9235C19.8165 15.7494 19.7677 15.5789 19.6769 15.4303C19.5861 15.2816 19.4566 15.1605 19.3022 15.0798Z" fill="#0075FF"/>
</svg>
