<svg width="30" height="30" viewBox="0 0 30 30" fill="none" xmlns="http://www.w3.org/2000/svg">
<path d="M4.6875 10.3125H25.3125V5.625C25.3125 5.37636 25.2137 5.1379 25.0379 4.96209C24.8621 4.78627 24.6236 4.6875 24.375 4.6875H5.625C5.37636 4.6875 5.1379 4.78627 4.96209 4.96209C4.78627 5.1379 4.6875 5.37636 4.6875 5.625V10.3125Z" fill="white"/>
<path d="M24.375 3.75H21.5625V2.8125C21.5625 2.56386 21.4637 2.3254 21.2879 2.14959C21.1121 1.97377 20.8736 1.875 20.625 1.875C20.3764 1.875 20.1379 1.97377 19.9621 2.14959C19.7863 2.3254 19.6875 2.56386 19.6875 2.8125V3.75H10.3125V2.8125C10.3125 2.56386 10.2137 2.3254 10.0379 2.14959C9.8621 1.97377 9.62364 1.875 9.375 1.875C9.12636 1.875 8.8879 1.97377 8.71209 2.14959C8.53627 2.3254 8.4375 2.56386 8.4375 2.8125V3.75H5.625C5.12772 3.75 4.65081 3.94754 4.29917 4.29917C3.94754 4.65081 3.75 5.12772 3.75 5.625V24.375C3.75 24.8723 3.94754 25.3492 4.29917 25.7008C4.65081 26.0525 5.12772 26.25 5.625 26.25H24.375C24.8723 26.25 25.3492 26.0525 25.7008 25.7008C26.0525 25.3492 26.25 24.8723 26.25 24.375V5.625C26.25 5.12772 26.0525 4.65081 25.7008 4.29917C25.3492 3.94754 24.8723 3.75 24.375 3.75ZM8.4375 5.625V6.5625C8.4375 6.81114 8.53627 7.0496 8.71209 7.22541C8.8879 7.40123 9.12636 7.5 9.375 7.5C9.62364 7.5 9.8621 7.40123 10.0379 7.22541C10.2137 7.0496 10.3125 6.81114 10.3125 6.5625V5.625H19.6875V6.5625C19.6875 6.81114 19.7863 7.0496 19.9621 7.22541C20.1379 7.40123 20.3764 7.5 20.625 7.5C20.8736 7.5 21.1121 7.40123 21.2879 7.22541C21.4637 7.0496 21.5625 6.81114 21.5625 6.5625V5.625H24.375V9.375H5.625V5.625H8.4375ZM24.375 24.375H5.625V11.25H24.375V24.375Z" fill="white"/>
<path d="M13.7578 16.8868L14.7891 15.586C14.8992 15.4484 14.9683 15.2827 14.9885 15.1077C15.0088 14.9326 14.9793 14.7555 14.9034 14.5965C14.8276 14.4374 14.7085 14.303 14.5597 14.2086C14.411 14.1141 14.2387 14.0635 14.0625 14.0625H10.7812C10.5326 14.0625 10.2942 14.1613 10.1183 14.3371C9.94252 14.5129 9.84375 14.7514 9.84375 15C9.84375 15.2487 9.94252 15.4871 10.1183 15.663C10.2942 15.8388 10.5326 15.9375 10.7812 15.9375H12.1172L11.4609 16.7578C11.3508 16.8954 11.2817 17.0612 11.2615 17.2362C11.2412 17.4112 11.2707 17.5884 11.3466 17.7474C11.4224 17.9064 11.5415 18.0408 11.6903 18.1353C11.839 18.2297 12.0113 18.2803 12.1875 18.2813C12.4361 18.2813 12.6746 18.3801 12.8504 18.5559C13.0262 18.7317 13.125 18.9701 13.125 19.2188C13.125 19.4674 13.0262 19.7059 12.8504 19.8817C12.6746 20.0575 12.4361 20.1563 12.1875 20.1563C11.9386 20.1552 11.6995 20.0588 11.5195 19.8868C11.4333 19.7985 11.3303 19.7284 11.2166 19.6806C11.1029 19.6327 10.9808 19.608 10.8574 19.608C10.7341 19.608 10.6119 19.6327 10.4982 19.6806C10.3845 19.7284 10.2815 19.7985 10.1953 19.8868C10.02 20.0625 9.92153 20.3006 9.92153 20.5489C9.92153 20.7971 10.02 21.0352 10.1953 21.211C10.5887 21.6057 11.0904 21.8747 11.6369 21.9838C12.1834 22.0929 12.75 22.0372 13.2647 21.8237C13.7795 21.6103 14.2193 21.2487 14.5282 20.7849C14.8372 20.3212 15.0014 19.7761 15 19.2188C15.0008 18.7579 14.8879 18.3039 14.6712 17.8971C14.4545 17.4903 14.1408 17.1432 13.7578 16.8868ZM19.1719 14.1563C19.0147 14.0812 18.8401 14.0503 18.6667 14.0668C18.4933 14.0833 18.3277 14.1467 18.1875 14.25L16.3125 15.6563C16.1136 15.8055 15.9821 16.0276 15.9469 16.2737C15.9118 16.5198 15.9758 16.7699 16.125 16.9688C16.2761 17.1651 16.4979 17.2946 16.7431 17.3297C16.9883 17.3647 17.2375 17.3025 17.4375 17.1563L17.8125 16.875V21.0938C17.8125 21.3424 17.9113 21.5809 18.0871 21.7567C18.2629 21.9325 18.5014 22.0313 18.75 22.0313C18.9986 22.0313 19.2371 21.9325 19.4129 21.7567C19.5887 21.5809 19.6875 21.3424 19.6875 21.0938V15C19.6861 14.8259 19.6374 14.6554 19.5465 14.5067C19.4557 14.3581 19.3262 14.237 19.1719 14.1563Z" fill="white"/>
</svg>
