<svg width="26" height="26" viewBox="0 0 26 26" fill="none" xmlns="http://www.w3.org/2000/svg">
<path d="M22.75 13C22.75 7.61719 18.3828 3.25 13 3.25C7.61719 3.25 3.25 7.61719 3.25 13C3.25 18.3828 7.61719 22.75 13 22.75C18.3828 22.75 22.75 18.3828 22.75 13Z" stroke="white" stroke-miterlimit="10"/>
<path d="M17.8074 7.66441L11.8558 10.045C11.4471 10.2085 11.0758 10.4533 10.7645 10.7646C10.4532 11.0759 10.2084 11.4472 10.045 11.8559L7.66435 17.8075C7.63479 17.8813 7.62756 17.9622 7.64354 18.0401C7.65952 18.118 7.69801 18.1895 7.75424 18.2457C7.81047 18.3019 7.88197 18.3404 7.95987 18.3564C8.03777 18.3724 8.11864 18.3651 8.19247 18.3356L14.144 15.955C14.5528 15.7915 14.9241 15.5467 15.2353 15.2354C15.5466 14.9241 15.7914 14.5529 15.9549 14.1441L18.3355 8.19254C18.3651 8.11871 18.3723 8.03784 18.3563 7.95994C18.3403 7.88204 18.3019 7.81054 18.2456 7.75431C18.1894 7.69808 18.1179 7.65959 18.04 7.64361C17.9621 7.62763 17.8812 7.63486 17.8074 7.66441ZM12.9999 14.2188C12.7589 14.2188 12.5233 14.1473 12.3228 14.0134C12.1224 13.8794 11.9662 13.6891 11.874 13.4664C11.7817 13.2437 11.7576 12.9986 11.8046 12.7622C11.8516 12.5258 11.9677 12.3087 12.1381 12.1382C12.3086 11.9678 12.5258 11.8517 12.7622 11.8047C12.9986 11.7576 13.2436 11.7818 13.4663 11.874C13.689 11.9663 13.8794 12.1225 14.0133 12.3229C14.1472 12.5233 14.2187 12.759 14.2187 13C14.2187 13.3232 14.0903 13.6332 13.8617 13.8618C13.6332 14.0903 13.3232 14.2188 12.9999 14.2188Z" fill="white"/>
</svg>
