<svg width="6" height="20" viewBox="0 0 6 20" fill="none" xmlns="http://www.w3.org/2000/svg">
<path d="M3.00008 2.41667V2.4275M3.00008 10V10.0108M3.00008 17.5833V17.5942M3.00008 3.5C2.71276 3.5 2.43721 3.38587 2.23405 3.1827C2.03088 2.97954 1.91675 2.70399 1.91675 2.41667C1.91675 2.12935 2.03088 1.8538 2.23405 1.65064C2.43721 1.44747 2.71276 1.33334 3.00008 1.33334C3.2874 1.33334 3.56295 1.44747 3.76611 1.65064C3.96928 1.8538 4.08341 2.12935 4.08341 2.41667C4.08341 2.70399 3.96928 2.97954 3.76611 3.1827C3.56295 3.38587 3.2874 3.5 3.00008 3.5ZM3.00008 11.0833C2.71276 11.0833 2.43721 10.9692 2.23405 10.766C2.03088 10.5629 1.91675 10.2873 1.91675 10C1.91675 9.71268 2.03088 9.43713 2.23405 9.23397C2.43721 9.03081 2.71276 8.91667 3.00008 8.91667C3.2874 8.91667 3.56295 9.03081 3.76611 9.23397C3.96928 9.43713 4.08341 9.71268 4.08341 10C4.08341 10.2873 3.96928 10.5629 3.76611 10.766C3.56295 10.9692 3.2874 11.0833 3.00008 11.0833ZM3.00008 18.6667C2.71276 18.6667 2.43721 18.5525 2.23405 18.3494C2.03088 18.1462 1.91675 17.8707 1.91675 17.5833C1.91675 17.296 2.03088 17.0205 2.23405 16.8173C2.43721 16.6141 2.71276 16.5 3.00008 16.5C3.2874 16.5 3.56295 16.6141 3.76611 16.8173C3.96928 17.0205 4.08341 17.296 4.08341 17.5833C4.08341 17.8707 3.96928 18.1462 3.76611 18.3494C3.56295 18.5525 3.2874 18.6667 3.00008 18.6667Z" stroke="white" stroke-width="2" stroke-linecap="round" stroke-linejoin="round"/>
</svg>
