<svg width="24" height="24" viewBox="0 0 24 24" fill="none" xmlns="http://www.w3.org/2000/svg">
<path d="M3.34255 7.77792C3.5687 7.23195 3.90017 6.73587 4.31804 6.31801C4.7359 5.90014 5.23198 5.56867 5.77795 5.34252C6.32392 5.11637 6.90909 4.99997 7.50004 4.99997C8.09099 4.99997 8.67616 5.11637 9.22213 5.34252C9.7681 5.56867 10.2642 5.90014 10.682 6.31801L12 7.63601L13.318 6.31801C14.162 5.47409 15.3066 4.99998 16.5 4.99998C17.6935 4.99998 18.8381 5.47409 19.682 6.31801C20.526 7.16193 21.0001 8.30653 21.0001 9.50001C21.0001 10.6935 20.526 11.8381 19.682 12.682L12 20.364L4.31804 12.682C3.90017 12.2641 3.5687 11.7681 3.34255 11.2221C3.1164 10.6761 3 10.091 3 9.50001C3 8.90906 3.1164 8.32389 3.34255 7.77792Z" fill="#020202" stroke="#020202" stroke-width="2" stroke-linecap="round" stroke-linejoin="round"/>
</svg>
