<svg width="30" height="30" viewBox="0 0 30 30" fill="none" xmlns="http://www.w3.org/2000/svg">
<path d="M15 7.5C14.6022 7.5 14.2207 7.65804 13.9393 7.93934C13.658 8.22064 13.5 8.60218 13.5 9V15C13.5 15.3978 13.658 15.7794 13.9393 16.0607C14.2207 16.342 14.6022 16.5 15 16.5C15.3978 16.5 15.7794 16.342 16.0607 16.0607C16.342 15.7794 16.5 15.3978 16.5 15V9C16.5 8.60218 16.342 8.22064 16.0607 7.93934C15.7794 7.65804 15.3978 7.5 15 7.5ZM16.38 20.43C16.3472 20.3344 16.3018 20.2436 16.245 20.16L16.065 19.935C15.8541 19.7269 15.5862 19.5859 15.2952 19.5298C15.0042 19.4737 14.7032 19.5051 14.43 19.62C14.2482 19.696 14.0808 19.8025 13.935 19.935C13.796 20.0752 13.686 20.2414 13.6114 20.4241C13.5367 20.6069 13.4989 20.8026 13.5 21C13.5024 21.196 13.5431 21.3897 13.62 21.57C13.6874 21.7561 13.7949 21.9252 13.9348 22.0652C14.0748 22.2052 14.2439 22.3126 14.43 22.38C14.6096 22.4594 14.8037 22.5003 15 22.5003C15.1963 22.5003 15.3905 22.4594 15.57 22.38C15.7562 22.3126 15.9252 22.2052 16.0652 22.0652C16.2052 21.9252 16.3126 21.7561 16.38 21.57C16.4569 21.3897 16.4976 21.196 16.5 21C16.5074 20.9001 16.5074 20.7999 16.5 20.7C16.4742 20.6043 16.4337 20.5133 16.38 20.43ZM15 0C12.0333 0 9.13319 0.879735 6.66645 2.52796C4.19972 4.17618 2.27713 6.51886 1.14181 9.25975C0.00649926 12.0006 -0.290551 15.0166 0.288228 17.9264C0.867006 20.8361 2.29562 23.5088 4.39341 25.6066C6.49119 27.7044 9.16394 29.133 12.0737 29.7118C14.9834 30.2906 17.9994 29.9935 20.7403 28.8582C23.4812 27.7229 25.8238 25.8003 27.4721 23.3336C29.1203 20.8668 30 17.9667 30 15C30 13.0302 29.612 11.0796 28.8582 9.25975C28.1044 7.43986 26.9995 5.78628 25.6066 4.3934C24.2137 3.00052 22.5601 1.89563 20.7403 1.14181C18.9204 0.387987 16.9698 0 15 0ZM15 27C12.6266 27 10.3066 26.2962 8.33316 24.9776C6.35977 23.6591 4.8217 21.7849 3.91345 19.5922C3.0052 17.3995 2.76756 14.9867 3.23058 12.6589C3.69361 10.3311 4.8365 8.19295 6.51473 6.51472C8.19296 4.83649 10.3312 3.6936 12.6589 3.23058C14.9867 2.76755 17.3995 3.00519 19.5922 3.91345C21.7849 4.8217 23.6591 6.35977 24.9776 8.33316C26.2962 10.3065 27 12.6266 27 15C27 18.1826 25.7357 21.2348 23.4853 23.4853C21.2349 25.7357 18.1826 27 15 27Z" fill="#020202"/>
</svg>
