<svg width="30" height="30" viewBox="0 0 30 30" fill="none" xmlns="http://www.w3.org/2000/svg">
<path d="M11.1714 23.5837H23.5839V21.1012H11.1714V23.5837ZM11.1714 16.1362H18.6189V13.6537H11.1714V16.1362ZM11.1714 6.20625V8.68875H26.0664V6.20625H11.1714ZM6.20636 5.58562C5.96177 5.58571 5.7196 5.63396 5.49366 5.72764C5.26772 5.82131 5.06245 5.95857 4.88956 6.13158C4.71666 6.30458 4.57954 6.50995 4.48602 6.73595C4.3925 6.96195 4.3444 7.20415 4.34448 7.44874C4.34456 7.69333 4.39282 7.9355 4.48649 8.16144C4.58017 8.38738 4.71743 8.59265 4.89043 8.76554C5.06344 8.93843 5.26881 9.07556 5.49481 9.16908C5.7208 9.2626 5.96301 9.3107 6.2076 9.31062C6.70156 9.31045 7.17523 9.11407 7.5244 8.76466C7.87357 8.41526 8.06964 7.94146 8.06947 7.4475C8.06931 6.95354 7.87292 6.47987 7.52352 6.1307C7.17412 5.78153 6.70032 5.58546 6.20636 5.58562ZM6.20636 13.0331C5.96177 13.0332 5.7196 13.0815 5.49366 13.1751C5.26772 13.2688 5.06245 13.4061 4.88956 13.5791C4.71666 13.7521 4.57954 13.9574 4.48602 14.1834C4.39249 14.4094 4.3444 14.6517 4.34448 14.8962C4.34456 15.1408 4.39282 15.383 4.48649 15.6089C4.58017 15.8349 4.71743 16.0402 4.89043 16.213C5.06344 16.3859 5.26881 16.5231 5.49481 16.6166C5.7208 16.7101 5.96301 16.7582 6.2076 16.7581C6.70156 16.758 7.17523 16.5616 7.5244 16.2122C7.87357 15.8628 8.06964 15.389 8.06947 14.895C8.06931 14.401 7.87292 13.9274 7.52352 13.5782C7.17412 13.229 6.70032 13.033 6.20636 13.0331ZM6.20636 20.4806C5.96177 20.4807 5.7196 20.529 5.49366 20.6226C5.26772 20.7163 5.06245 20.8536 4.88956 21.0266C4.71666 21.1996 4.57954 21.4049 4.48602 21.6309C4.39249 21.8569 4.3444 22.0992 4.34448 22.3437C4.34456 22.5883 4.39282 22.8305 4.48649 23.0564C4.58017 23.2824 4.71743 23.4877 4.89043 23.6605C5.06344 23.8334 5.26881 23.9706 5.49481 24.0641C5.7208 24.1576 5.96301 24.2057 6.2076 24.2056C6.70156 24.2055 7.17523 24.0091 7.5244 23.6597C7.87357 23.3103 8.06964 22.8365 8.06947 22.3425C8.06931 21.8485 7.87292 21.3749 7.52352 21.0257C7.17412 20.6765 6.70032 20.4805 6.20636 20.4806Z" fill="white"/>
</svg>
