<svg width="30" height="30" viewBox="0 0 30 30" fill="none" xmlns="http://www.w3.org/2000/svg">
<path d="M11.1716 23.5836H23.5841V21.1011H11.1716V23.5836ZM11.1716 16.1361H18.6191V13.6536H11.1716V16.1361ZM11.1716 6.20607V8.68857H26.0666V6.20607H11.1716ZM6.2066 5.58545C5.96202 5.58553 5.71984 5.63379 5.4939 5.72746C5.26797 5.82114 5.06269 5.95839 4.8898 6.1314C4.71691 6.30441 4.57979 6.50977 4.48626 6.73577C4.39274 6.96177 4.34465 7.20398 4.34473 7.44857C4.34481 7.69315 4.39306 7.93533 4.48674 8.16126C4.58041 8.3872 4.71767 8.59248 4.89068 8.76537C5.06368 8.93826 5.26905 9.07538 5.49505 9.1689C5.72105 9.26243 5.96326 9.31052 6.20784 9.31044C6.70181 9.31028 7.17548 9.11389 7.52464 8.76449C7.87381 8.41509 8.06988 7.94129 8.06972 7.44732C8.06955 6.95336 7.87317 6.47969 7.52377 6.13052C7.17436 5.78135 6.70057 5.58528 6.2066 5.58545ZM6.2066 13.0329C5.96202 13.033 5.71984 13.0813 5.4939 13.175C5.26797 13.2686 5.06269 13.4059 4.8898 13.5789C4.71691 13.7519 4.57979 13.9573 4.48626 14.1833C4.39274 14.4093 4.34465 14.6515 4.34473 14.8961C4.34481 15.1407 4.39306 15.3828 4.48674 15.6088C4.58041 15.8347 4.71767 16.04 4.89068 16.2129C5.06368 16.3858 5.26905 16.5229 5.49505 16.6164C5.72105 16.7099 5.96326 16.758 6.20784 16.7579C6.70181 16.7578 7.17548 16.5614 7.52464 16.212C7.87381 15.8626 8.06988 15.3888 8.06972 14.8948C8.06955 14.4009 7.87317 13.9272 7.52377 13.578C7.17436 13.2289 6.70057 13.0328 6.2066 13.0329ZM6.2066 20.4804C5.96202 20.4805 5.71984 20.5288 5.4939 20.6225C5.26797 20.7161 5.06269 20.8534 4.8898 21.0264C4.71691 21.1994 4.57979 21.4048 4.48626 21.6308C4.39274 21.8568 4.34465 22.099 4.34473 22.3436C4.34481 22.5882 4.39306 22.8303 4.48674 23.0563C4.58041 23.2822 4.71767 23.4875 4.89068 23.6604C5.06368 23.8333 5.26905 23.9704 5.49505 24.0639C5.72105 24.1574 5.96326 24.2055 6.20784 24.2054C6.70181 24.2053 7.17548 24.0089 7.52464 23.6595C7.87381 23.3101 8.06988 22.8363 8.06972 22.3423C8.06955 21.8484 7.87317 21.3747 7.52377 21.0255C7.17436 20.6764 6.70057 20.4803 6.2066 20.4804Z" fill="#020202"/>
</svg>
