<svg width="109" height="158" viewBox="0 0 109 158" fill="none" xmlns="http://www.w3.org/2000/svg">
<path d="M105 56.1183C105 30.0591 74.0267 10.5148 56.52 4C12.08 20.287 4 43.0887 4 56.1183V153.84H105V56.1183Z" stroke="#009959" stroke-width="7"/>
<g clip-path="url(#clip0_2_4683)">
<path d="M69.7159 68.5525C66.8233 66.9485 63.701 65.7997 60.4587 65.1463C65.2319 70.1525 68.2834 76.551 69.1693 83.411C70.0552 90.2711 68.7293 97.2349 65.3844 103.289C62.0396 109.344 56.8503 114.173 50.5714 117.075C44.2925 119.977 37.2515 120.8 30.4727 119.424C33.7053 122.814 37.6326 125.466 41.9855 127.197C46.3384 128.928 51.014 129.697 55.692 129.453C60.3701 129.208 64.9399 127.955 69.0885 125.779C73.2371 123.604 76.8663 120.557 79.7275 116.848C82.5888 113.139 84.6144 108.855 85.6656 104.29C86.7168 99.7251 86.7687 94.9869 85.8179 90.4C84.867 85.813 82.9358 81.4859 80.1565 77.715C77.3773 73.9441 73.8157 70.8185 69.7159 68.5525Z" fill="#009959"/>
</g>
<path d="M41.0002 89.1483L48.2102 93.5L46.2968 85.2983L52.6668 79.78L44.2785 79.0683L41.0002 71.3333L37.7218 79.0683L29.3335 79.78L35.7035 85.2983L33.7902 93.5L41.0002 89.1483Z" fill="#009959"/>
<defs>
<clipPath id="clip0_2_4683">
<rect width="78" height="78" fill="white" transform="translate(38.7222 44.0039) rotate(28.9186)"/>
</clipPath>
</defs>
</svg>
