<svg xmlns="http://www.w3.org/2000/svg" xmlns:xlink="http://www.w3.org/1999/xlink" version="1.1" x="0px" y="0px" viewBox="0 0 32 40" style="enable-background:new 0 0 32 32;" xml:space="preserve"><path d="M24.079,17.475c-0.206,0.159-0.477,0.187-0.709,0.073s-0.377-0.345-0.377-0.604V9.708c0-0.192-0.156-0.349-0.349-0.349  s-0.349,0.156-0.349,0.349v4.297c0,0.276-0.224,0.5-0.5,0.5s-0.5-0.224-0.5-0.5V8.86c0-0.192-0.157-0.349-0.35-0.349  s-0.349,0.157-0.349,0.349v5.146c0,0.276-0.224,0.5-0.5,0.5s-0.5-0.224-0.5-0.5V9.708c0-0.192-0.156-0.349-0.349-0.349  S18.9,9.516,18.9,9.708v4.297c0,0.276-0.224,0.5-0.5,0.5s-0.5-0.224-0.5-0.5v-3.288c0-0.192-0.157-0.349-0.35-0.349  s-0.349,0.157-0.349,0.349v6.883c0,0.953,0.284,1.873,0.82,2.66c0.057,0.083,0.087,0.181,0.087,0.282v2.947h4.57v-2.947  c0-0.166,0.082-0.32,0.219-0.414c0.748-0.509,1.409-1.132,1.965-1.851l1.804-2.34c-0.354-0.011-0.757,0.11-1.06,0.346L24.079,17.475  z"/><path d="M14.449,10.369c-0.192,0-0.349,0.157-0.349,0.349v3.288c0,0.276-0.224,0.5-0.5,0.5s-0.5-0.224-0.5-0.5V9.708  c0-0.192-0.157-0.349-0.349-0.349s-0.349,0.156-0.349,0.349v4.297c0,0.276-0.224,0.5-0.5,0.5s-0.5-0.224-0.5-0.5V8.86  c0-0.192-0.157-0.349-0.349-0.349s-0.349,0.157-0.349,0.349v5.146c0,0.276-0.224,0.5-0.5,0.5s-0.5-0.224-0.5-0.5V9.708  c0-0.192-0.157-0.349-0.349-0.349S9.007,9.516,9.007,9.708v7.236c0,0.258-0.144,0.49-0.376,0.604  c-0.232,0.113-0.505,0.086-0.708-0.073l-1.529-1.191c-0.302-0.236-0.686-0.364-1.061-0.346l1.806,2.34  c0.554,0.717,1.214,1.34,1.964,1.85c0.137,0.093,0.219,0.248,0.219,0.414v2.947h4.57v-2.947c0-0.101,0.03-0.199,0.087-0.282  c0.537-0.788,0.82-1.708,0.82-2.66v-6.883C14.798,10.525,14.641,10.369,14.449,10.369z"/><path d="M30.354,15.646l-3.954-3.954V6.101c0-0.276-0.224-0.5-0.5-0.5h-5.592l-3.954-3.954c-0.195-0.195-0.512-0.195-0.707,0  l-3.954,3.954H6.101c-0.276,0-0.5,0.224-0.5,0.5v5.592l-3.954,3.954c-0.195,0.195-0.195,0.512,0,0.707l3.954,3.954v5.592  c0,0.276,0.224,0.5,0.5,0.5h5.592l3.954,3.954C15.744,30.451,15.872,30.5,16,30.5s0.256-0.049,0.354-0.146l3.954-3.954h5.592  c0.276,0,0.5-0.224,0.5-0.5v-5.592l3.954-3.954C30.549,16.158,30.549,15.842,30.354,15.646z M15.798,17.601  c0,1.102-0.313,2.167-0.907,3.092v3.296c0,0.276-0.224,0.5-0.5,0.5H8.82c-0.276,0-0.5-0.224-0.5-0.5v-3.187  c-0.747-0.54-1.411-1.183-1.975-1.914l-1.931-2.502c-0.193-0.252-0.239-0.578-0.121-0.872c0.118-0.294,0.375-0.499,0.688-0.547  c0.716-0.11,1.454,0.082,2.024,0.527l1,0.778V9.708c0-0.744,0.605-1.349,1.349-1.349c0.153,0,0.295,0.04,0.433,0.088  c0.177-0.539,0.668-0.937,1.265-0.937c0.598,0,1.089,0.397,1.266,0.937C12.456,8.4,12.598,8.36,12.751,8.36  c0.652,0,1.172,0.474,1.297,1.09c0.129-0.041,0.259-0.081,0.401-0.081c0.744,0,1.349,0.605,1.349,1.349V17.601z M27.584,16.388  l-1.93,2.501c-0.565,0.732-1.229,1.375-1.975,1.914v3.187c0,0.276-0.224,0.5-0.5,0.5h-5.57c-0.276,0-0.5-0.224-0.5-0.5v-3.296  c-0.594-0.925-0.907-1.99-0.907-3.092v-6.883c0-0.744,0.605-1.349,1.349-1.349c0.142,0,0.273,0.04,0.402,0.081  c0.125-0.616,0.645-1.09,1.296-1.09c0.153,0,0.295,0.04,0.432,0.087c0.177-0.539,0.668-0.937,1.265-0.937  c0.598,0,1.089,0.397,1.266,0.937C22.35,8.4,22.491,8.36,22.645,8.36c0.743,0,1.349,0.605,1.349,1.349v6.565l0.999-0.778  c0.572-0.445,1.308-0.638,2.025-0.527c0.313,0.048,0.571,0.253,0.688,0.548C27.824,15.811,27.778,16.137,27.584,16.388z"/></svg>