<svg width="50" height="50"  xmlns="http://www.w3.org/2000/svg" xmlns:xlink="http://www.w3.org/1999/xlink"   viewBox="3 5 90 90"  ><g><path d="M65.656,27.653c-0.597-0.379-1.229-0.665-1.875-0.878c2.494,2.678,2.978,6.797,0.917,10.018   c-2.061,3.222-5.992,4.514-9.472,3.38c0.461,0.497,0.989,0.956,1.586,1.335c3.826,2.44,8.9,1.316,11.347-2.509   C70.606,35.175,69.482,30.094,65.656,27.653z"/><polygon points="57.516,37.684 59.919,35.752 62.872,36.638 61.78,33.755 63.535,31.219 60.457,31.372 58.584,28.919    57.778,31.895 54.868,32.911 57.449,34.601  "/><path d="M92.63,49.108L81.145,37.622c-0.237-0.237-0.369-0.557-0.369-0.892V20.487c0-0.697-0.565-1.261-1.262-1.261H63.27   c-0.335,0-0.655-0.133-0.892-0.369L50.892,7.37c-0.493-0.493-1.291-0.493-1.784,0L37.622,18.856   c-0.237,0.237-0.557,0.369-0.892,0.369H20.487c-0.697,0-1.262,0.565-1.262,1.261V36.73c0,0.335-0.133,0.655-0.369,0.892   L7.37,49.108c-0.493,0.493-0.493,1.292,0,1.784l11.486,11.486c0.237,0.237,0.369,0.557,0.369,0.892v16.244   c0,0.697,0.565,1.262,1.262,1.262H36.73c0.335,0,0.655,0.133,0.892,0.369l11.486,11.486c0.493,0.493,1.291,0.493,1.784,0   l11.486-11.486c0.237-0.237,0.557-0.369,0.892-0.369h16.244c0.697,0,1.262-0.565,1.262-1.262V63.27   c0-0.335,0.133-0.656,0.369-0.892L92.63,50.892C93.123,50.4,93.123,49.601,92.63,49.108z M85.782,50.749l-9.641,9.641   c-0.199,0.199-0.31,0.468-0.31,0.749v13.634c0,0.585-0.474,1.059-1.059,1.059H61.138c-0.281,0-0.55,0.112-0.749,0.31l-9.641,9.641   c-0.414,0.414-1.084,0.414-1.498,0l-9.641-9.641c-0.199-0.199-0.468-0.31-0.749-0.31H25.228c-0.585,0-1.059-0.474-1.059-1.059   V61.138c0-0.281-0.112-0.55-0.31-0.749l-9.641-9.641c-0.413-0.413-0.413-1.084,0-1.497l9.641-9.641   c0.199-0.199,0.31-0.468,0.31-0.749V25.228c0-0.585,0.474-1.059,1.059-1.059h13.634c0.281,0,0.55-0.112,0.749-0.31l9.641-9.641   c0.414-0.414,1.084-0.414,1.498,0l9.641,9.641c0.199,0.199,0.468,0.31,0.749,0.31h13.634c0.585,0,1.059,0.474,1.059,1.059v13.634   c0,0.281,0.112,0.55,0.31,0.749l9.641,9.641C86.196,49.665,86.196,50.335,85.782,50.749z"/><path d="M47.092,38.757c-0.872-2.61-3.695-4.018-6.305-3.146c-2.61,0.872-4.018,3.695-3.146,6.305L47.092,38.757z"/><path d="M37.749,42.238c0.617,1.848,2.22,3.09,4.029,3.348c0.156,0.022,0.313,0.036,0.472,0.044   c0.745,0.035,1.513-0.093,2.252-0.42c0.423-0.187,0.803-0.43,1.141-0.714c0.122-0.102,0.238-0.21,0.349-0.323   c1.301-1.334,1.784-3.369,1.162-5.232l-0.026-0.076l-9.451,3.159L37.749,42.238z"/><path d="M56.069,50.742c-0.233,0-0.445,0.06-0.631,0.18l-4.751,3.059l-3.165-1.636l-0.256-2.484   c-0.214-2.066-2.133-3.625-4.464-3.625c-0.178,0-0.359,0.009-0.538,0.028c-1.223,0.126-2.329,0.667-3.115,1.524   c-0.787,0.858-1.159,1.93-1.047,3.018l1.261,12.211c-0.008,0.141-0.017,0.277-0.025,0.409c-0.101,1.604-0.162,2.572,0.827,3.076   l1.118,0.571h-4.255c-1.669,0-3.027,1.25-3.027,2.787c0,1.537,1.358,2.787,3.027,2.787h16.606c1.669,0,3.027-1.25,3.027-2.787   c0-1.173-0.805-2.224-2.005-2.621l-0.031-0.049l-6.235-3.313c0.163-0.499,0.219-1.011,0.166-1.522l-0.485-4.7l1.558,0.806   c0.131,0.068,0.277,0.102,0.433,0.102c0,0,0,0,0,0c0.343,0,0.727-0.168,1.076-0.468l6.306-4.059   c0.321-0.206,0.516-0.563,0.551-1.005c0.034-0.437-0.094-0.906-0.36-1.32C57.249,51.113,56.65,50.742,56.069,50.742z"/></g></svg>