<svg xmlns="http://www.w3.org/2000/svg" data-name="Layer 3" viewBox="0 0 64 80" x="0px" y="0px"><path d="M39,25V45H15V13H36V11H14a1,1,0,0,0-1,1V46a1,1,0,0,0,1,1H40a1,1,0,0,0,1-1V25Z"/><path d="M24.47,21.33a1,1,0,0,0-1-.29A9.17,9.17,0,1,0,35,31.88a1,1,0,0,0-1.54-1,5.66,5.66,0,0,1-3.27,1.05c-3.36,0-6.09-3-6.09-6.67a7.06,7.06,0,0,1,.58-2.83A1,1,0,0,0,24.47,21.33Zm5.69,12.56a7.39,7.39,0,0,0,2-.27,7,7,0,0,1-6,3.38,7.2,7.2,0,0,1-3.94-13.17,9.19,9.19,0,0,0-.1,1.39C22.07,30,25.7,33.89,30.16,33.89Z"/><path d="M33.41,19.57a1,1,0,0,0-1.82,0l-.85,1.83-1.89.29a1,1,0,0,0-.57,1.68l1.4,1.43-.33,2a1,1,0,0,0,1.47,1L32.5,27l1.68.93a1,1,0,0,0,.48.12,1,1,0,0,0,.58-.18,1,1,0,0,0,.41-1l-.33-2,1.4-1.43a1,1,0,0,0-.57-1.68l-1.89-.29Zm.12,4.2a1,1,0,0,0-.27.86l.08.5-.36-.2a1,1,0,0,0-1,0l-.36.2.08-.5a1,1,0,0,0-.27-.86l-.39-.4.49-.08a1,1,0,0,0,.75-.56l.18-.38.18.38a1,1,0,0,0,.75.56l.49.08Z"/><path d="M63,14a3,3,0,0,0-2.41-2.94,10.92,10.92,0,0,0-1-2.5,3,3,0,0,0-4.11-4.11,10.92,10.92,0,0,0-2.5-1,3,3,0,0,0-5.88,0,10.74,10.74,0,0,0-2.5,1A3,3,0,0,0,40.78,5H7a6,6,0,0,0-6,6V57a6,6,0,0,0,6,6H44a1,1,0,0,0,.92-.62,1,1,0,0,0-.21-1.09l-1.59-1.58a3.84,3.84,0,0,1,0-5.42l1.59-1.58A1,1,0,0,0,45,52h0V23.79a10.34,10.34,0,0,0,2.06.8A3,3,0,0,0,49,26.82V28H48a1,1,0,0,0-1,1v6a1,1,0,0,0,1,1h4a1,1,0,0,0,1-1V29a1,1,0,0,0-1-1H51V26.82a3,3,0,0,0,1.94-2.23,10.92,10.92,0,0,0,2.5-1,3,3,0,0,0,4.11-4.11,10.92,10.92,0,0,0,1-2.5A3,3,0,0,0,63,14ZM51,34H49V30h2Zm6-16a3,3,0,0,0-3,3,2.83,2.83,0,0,0,.18,1,9.82,9.82,0,0,1-1.54.64,3,3,0,0,0-5.28,0A9.82,9.82,0,0,1,45.82,22,2.83,2.83,0,0,0,46,21a3,3,0,0,0-3-3,2.83,2.83,0,0,0-1,.18,9.82,9.82,0,0,1-.64-1.54,3,3,0,0,0,0-5.28A9.82,9.82,0,0,1,42,9.82,2.83,2.83,0,0,0,43,10a3,3,0,0,0,3-3,3.14,3.14,0,0,0-.17-1,9.33,9.33,0,0,1,1.53-.64,3,3,0,0,0,5.28,0A9.82,9.82,0,0,1,54.18,6,2.83,2.83,0,0,0,54,7a3,3,0,0,0,3,3,2.83,2.83,0,0,0,1-.18,9.82,9.82,0,0,1,.64,1.54,3,3,0,0,0,0,5.28A9.82,9.82,0,0,1,58,18.18,2.83,2.83,0,0,0,57,18ZM40,13a1,1,0,1,1-1,1A1,1,0,0,1,40,13Zm3,7a1,1,0,1,1-1,1A1,1,0,0,1,43,20Zm17-5a1,1,0,1,1,1-1A1,1,0,0,1,60,15ZM57,6a1,1,0,1,1-1,1A1,1,0,0,1,57,6ZM50,3a1,1,0,1,1-1,1A1,1,0,0,1,50,3ZM43,6a1,1,0,1,1-1,1A1,1,0,0,1,43,6ZM7,7H9V51H7a6,6,0,0,0-4,1.54V11A4,4,0,0,1,7,7ZM40.09,56H10v2H40.09a5.87,5.87,0,0,0,1.5,3H7a4,4,0,0,1,0-8H41.59A5.87,5.87,0,0,0,40.09,56ZM11,51V7H40a3,3,0,0,0,.45,1.56,10.74,10.74,0,0,0-1,2.5,3,3,0,0,0,0,5.88,10.92,10.92,0,0,0,1,2.5A3,3,0,0,0,43,24V51ZM50,25a1,1,0,1,1,1-1A1,1,0,0,1,50,25Zm7-3a1,1,0,1,1,1-1A1,1,0,0,1,57,22Z"/><text x="0" y="79" fill="#000000" font-size="5px" font-weight="bold" font-family="'Helvetica Neue', Helvetica, Arial-Unicode, Arial, Sans-serif">Created by Start Up Graphic Design</text><text x="0" y="84" fill="#000000" font-size="5px" font-weight="bold" font-family="'Helvetica Neue', Helvetica, Arial-Unicode, Arial, Sans-serif">from the Noun Project</text></svg>