<svg xmlns="http://www.w3.org/2000/svg"   viewBox="0 -1 96 96" x="0px" y="0px"><path  d="m32.9,33.34l-7.2,12.39c-.39.68-.48,1.5-.23,2.24.24.74.79,1.34,1.5,1.66l8.73,3.83-1.13,8.98c-.06.5.15,1,.56,1.31.25.18.54.28.84.28.19,0,.39-.04.57-.12l11.33-5s.08.02.12.02.08-.02.13-.03l11.33,5c.18.08.38.12.57.12.3,0,.6-.09.84-.28.41-.3.62-.8.56-1.31l-1.13-8.98,8.73-3.83c.71-.31,1.26-.92,1.5-1.66.24-.74.16-1.56-.23-2.24l-7.19-12.38c-.69-1.19-2.17-1.69-3.45-1.15l-.54.23s-.05.02-.08.04l-11.02,5.92-11.1-5.96-.54-.23c-1.28-.54-2.76-.04-3.45,1.15Zm4.72,20.96l7.9,3.47-8.83,3.89.93-7.36Zm12.86,3.47l7.9-3.47.93,7.36-8.83-3.89Zm9.45-23.52l.5-.21c.35-.15.75-.01.94.31l7.19,12.38c.11.19.13.41.06.62-.04.12-.14.33-.41.45l-19.22,8.44v-16.11l10.93-5.87Zm-12.93,5.88v16.11l-9.8-4.3s0,0,0,0l-9.41-4.13c-.26-.12-.37-.33-.41-.45-.07-.21-.04-.43.06-.61l7.2-12.39c.19-.32.59-.45.94-.31l11.43,6.09Z"/><path  stroke="white" stroke-width="3" d="m48,77.99c-.55,0-1,.45-1,1v12.01c0,.55.45,1,1,1s1-.45,1-1v-12.01c0-.55-.45-1-1-1Z"/><path stroke="white" stroke-width="3" d="m48,18.01c.55,0,1-.45,1-1V5c0-.55-.45-1-1-1s-1,.45-1,1v12.01c0,.55.45,1,1,1Z"/><path stroke="white" stroke-width="3" d="m18.01,48c0-.55-.45-1-1-1H5c-.55,0-1,.45-1,1s.45,1,1,1h12.01c.55,0,1-.45,1-1Z"/><path stroke="white" stroke-width="3" d="m91,47h-12.01c-.55,0-1,.45-1,1s.45,1,1,1h12.01c.55,0,1-.45,1-1s-.45-1-1-1Z"/><path stroke="white" stroke-width="3" d="m25.38,26.8c.2.2.45.29.71.29s.51-.1.71-.29c.39-.39.39-1.02,0-1.41l-8.5-8.5c-.39-.39-1.02-.39-1.41,0s-.39,1.02,0,1.41l8.5,8.5Z"/><path stroke="white" stroke-width="3" d="m70.61,69.21c-.39-.39-1.02-.39-1.41,0s-.39,1.02,0,1.41l8.5,8.5c.2.2.45.29.71.29s.51-.1.71-.29c.39-.39.39-1.02,0-1.41l-8.5-8.5Z"/><path stroke="white" stroke-width="2" d="m69.91,27.09c.26,0,.51-.1.71-.29l8.5-8.5c.39-.39.39-1.02,0-1.41s-1.02-.39-1.41,0l-8.5,8.5c-.39.39-.39,1.02,0,1.41.2.2.45.29.71.29Z"/><path stroke="white" stroke-width="3" d="m25.38,69.21l-8.5,8.5c-.39.39-.39,1.02,0,1.41.2.2.45.29.71.29s.51-.1.71-.29l8.5-8.5c.39-.39.39-1.02,0-1.41s-1.02-.39-1.41,0Z"/><path stroke="white" stroke-width="3" d="m36.36,76.25c-.51-.21-1.09.03-1.31.54l-2.39,5.8c-.21.51.03,1.09.54,1.31.12.05.25.08.38.08.39,0,.77-.23.92-.62l2.39-5.8c.21-.51-.03-1.09-.54-1.31Z"/><path stroke="white" stroke-width="3" d="m59.64,19.76c.12.05.25.08.38.08.39,0,.77-.23.92-.62l2.39-5.8c.21-.51-.03-1.09-.54-1.31-.51-.21-1.09.03-1.31.54l-2.39,5.8c-.21.51.03,1.09.54,1.31Z"/><path stroke="white" stroke-width="3" d="m12.65,34.51l5.79,2.39c.12.05.25.08.38.08.39,0,.77-.23.92-.62.21-.51-.03-1.1-.54-1.31l-5.79-2.39c-.51-.21-1.1.03-1.31.54-.21.51.03,1.1.54,1.31Z"/><path stroke="white" stroke-width="3" d="m83.35,61.49l-5.8-2.39c-.51-.21-1.09.03-1.31.54-.21.51.03,1.09.54,1.31l5.8,2.39c.12.05.25.08.38.08.39,0,.77-.23.92-.62.21-.51-.03-1.09-.54-1.31Z"/><path stroke="white" stroke-width="3" d="m34.95,19.25c.16.38.53.62.92.62.13,0,.26-.02.38-.08.51-.21.75-.8.54-1.31l-2.41-5.79c-.21-.51-.8-.75-1.31-.54-.51.21-.75.8-.54,1.31l2.41,5.79Z"/><path stroke="white" stroke-width="3" d="m61.04,76.75c-.21-.51-.8-.75-1.31-.54-.51.21-.75.8-.54,1.31l2.41,5.79c.16.38.53.62.92.62.13,0,.26-.02.38-.08.51-.21.75-.8.54-1.31l-2.41-5.79Z"/><path stroke="white" stroke-width="3" d="m76.21,36.27c.16.38.53.62.92.62.13,0,.26-.02.38-.08l5.79-2.41c.51-.21.75-.8.54-1.31s-.8-.75-1.31-.54l-5.79,2.41c-.51.21-.75.8-.54,1.31Z"/><path stroke="white" stroke-width="3" d="m19.79,59.74c-.21-.51-.8-.75-1.31-.54l-5.79,2.41c-.51.21-.75.8-.54,1.31.16.38.53.62.92.62.13,0,.26-.02.38-.08l5.79-2.41c.51-.21.75-.8.54-1.31Z"/><path d="m53.14,43.53c.14,0,.28-.03.42-.09l7.22-3.34c.5-.23.72-.83.49-1.33-.23-.5-.82-.72-1.33-.49l-7.22,3.34c-.5.23-.72.83-.49,1.33.17.37.53.58.91.58Z"/><path d="m50.8,49.83c.17.37.53.58.91.58.14,0,.28-.03.41-.09l11.59-5.29c.5-.23.72-.82.5-1.33-.23-.5-.82-.72-1.33-.5l-11.59,5.29c-.5.23-.72.82-.5,1.33Z" stroke="white" stroke-width="1"/><path d="m34.73,38.77c-.23.5-.01,1.1.49,1.33l7.22,3.34c.14.06.28.09.42.09.38,0,.74-.21.91-.58.23-.5.01-1.1-.49-1.33l-7.22-3.34c-.5-.23-1.09-.01-1.33.49Z"/><path d="m31.79,43.71c-.23.5,0,1.1.5,1.33l11.59,5.29c.13.06.28.09.41.09.38,0,.74-.22.91-.58.23-.5,0-1.1-.5-1.33l-11.59-5.29c-.5-.23-1.1,0-1.33.5Z" stroke="white" stroke-width="1"/></svg>