<svg width="31" height="31" viewBox="0 0 31 31" fill="none" xmlns="http://www.w3.org/2000/svg">
<g clip-path="url(#clip0_1_1357)">
<path d="M16.7472 0.523532C17.1882 0.523532 17.5827 0.798032 17.7312 1.20903L18.7902 4.14453C19.1697 4.23903 19.4952 4.33353 19.7712 4.43253C20.0727 4.54053 20.4612 4.70403 20.9412 4.92753L23.4072 3.62253C23.6085 3.51589 23.8389 3.4774 24.0639 3.51283C24.2889 3.54826 24.4964 3.6557 24.6552 3.81903L26.8242 6.06153C27.1122 6.36003 27.1932 6.79653 27.0312 7.17753L25.8747 9.88803C26.0667 10.2405 26.2197 10.542 26.3367 10.794C26.4627 11.0685 26.6187 11.4465 26.8047 11.934L29.5002 13.089C29.9052 13.2615 30.1557 13.6665 30.1287 14.1L29.9307 17.2125C29.9172 17.4147 29.8446 17.6085 29.7219 17.7698C29.5992 17.9312 29.4319 18.0529 29.2407 18.12L26.6877 19.0275C26.6142 19.38 26.5377 19.6815 26.4567 19.9365C26.326 20.3303 26.1769 20.7178 26.0097 21.0975L27.2922 23.9325C27.3827 24.1317 27.4071 24.3547 27.3617 24.5687C27.3164 24.7827 27.2037 24.9767 27.0402 25.122L24.6012 27.3C24.4406 27.4429 24.2401 27.5332 24.0267 27.5589C23.8133 27.5847 23.5972 27.5446 23.4072 27.444L20.8932 26.112C20.4999 26.3203 20.0941 26.5041 19.6782 26.6625L18.5802 27.0735L17.6052 29.7735C17.5329 29.9713 17.4026 30.1425 17.2313 30.2649C17.06 30.3872 16.8557 30.4549 16.6452 30.459L13.7952 30.5235C13.5791 30.5292 13.3666 30.4678 13.1869 30.3477C13.0072 30.2276 12.8691 30.0548 12.7917 29.853L11.6427 26.8125C11.2507 26.6785 10.8625 26.5335 10.4787 26.3775C10.1648 26.2417 9.85558 26.0951 9.55169 25.938L6.70169 27.156C6.5139 27.2361 6.30687 27.2599 6.1058 27.2245C5.90473 27.1891 5.7183 27.096 5.56919 26.9565L3.46019 24.978C3.30317 24.8314 3.19624 24.639 3.15451 24.4283C3.11279 24.2175 3.13839 23.999 3.22769 23.8035L4.45319 21.1335C4.29021 20.8173 4.1391 20.4951 4.00019 20.1675C3.83804 19.7666 3.68797 19.3609 3.55019 18.951L0.86519 18.1335C0.646941 18.0676 0.456581 17.9314 0.323675 17.7461C0.190768 17.5609 0.122752 17.3369 0.13019 17.109L0.23519 14.2275C0.242664 14.0395 0.301395 13.8571 0.405032 13.7001C0.508669 13.5431 0.653267 13.4173 0.82319 13.3365L3.64019 11.9835C3.77069 11.505 3.88469 11.133 3.98519 10.8615C4.1267 10.4989 4.28385 10.1426 4.45619 9.79353L3.23519 7.21353C3.14253 7.0176 3.11439 6.79734 3.15482 6.58441C3.19525 6.37148 3.30216 6.17686 3.46019 6.02853L5.56619 4.03953C5.71382 3.90029 5.89854 3.80668 6.09813 3.76995C6.29772 3.73323 6.50366 3.75496 6.69119 3.83253L9.53819 5.00853C9.85319 4.79853 10.1382 4.62903 10.3962 4.49253C10.7037 4.32903 11.1147 4.15803 11.6322 3.97353L12.6222 1.21203C12.6954 1.00993 12.8292 0.835354 13.0053 0.712128C13.1814 0.588903 13.3912 0.52304 13.6062 0.523532H16.7472ZM15.1662 11.052C12.6657 11.052 10.6392 13.0545 10.6392 15.5265C10.6392 17.9985 12.6657 20.0025 15.1662 20.0025C17.6652 20.0025 19.6917 17.9985 19.6917 15.5265C19.6917 13.0545 17.6667 11.052 15.1662 11.052Z" fill="#B9B9B9"/>
</g>
<defs>
<clipPath id="clip0_1_1357">
<rect width="30" height="30" fill="white" transform="translate(0.130371 0.523529)"/>
</clipPath>
</defs>
</svg>
