<svg width="18" height="18" viewBox="0 0 18 18" fill="#000000" xmlns="http://www.w3.org/2000/svg">
<path d="M15.8624 2.14501C15.5758 1.85293 15.2125 1.64792 14.8143 1.55369C14.4161 1.45946 13.9994 1.47985 13.6124 1.61251L2.99985 5.16001C2.57184 5.30011 2.19787 5.56962 1.92957 5.93133C1.66127 6.29305 1.51187 6.72913 1.50199 7.17938C1.49211 7.62964 1.62224 8.07185 1.87442 8.44499C2.12661 8.81812 2.4884 9.10377 2.90985 9.26251L6.83985 10.7625C6.92934 10.7967 7.01082 10.849 7.07921 10.9161C7.1476 10.9832 7.20143 11.0637 7.23735 11.1525L8.73735 15.09C8.89004 15.5055 9.16712 15.8638 9.53083 16.1161C9.89454 16.3685 10.3272 16.5025 10.7699 16.5H10.8224C11.2731 16.4918 11.71 16.3428 12.0718 16.0738C12.4336 15.8048 12.7022 15.4293 12.8399 15L16.3874 4.37251C16.5164 3.98921 16.5356 3.57746 16.4428 3.18382C16.35 2.79018 16.149 2.43035 15.8624 2.14501ZM14.9999 3.90001L11.4149 14.535C11.3732 14.6696 11.2896 14.7874 11.1763 14.871C11.0629 14.9547 10.9257 14.9999 10.7849 15C10.6448 15.0023 10.5074 14.9619 10.3908 14.8842C10.2742 14.8065 10.1841 14.6952 10.1324 14.565L8.63235 10.6275C8.52361 10.3414 8.3559 10.0814 8.14011 9.86429C7.92433 9.64722 7.66531 9.47796 7.37985 9.36751L3.44235 7.86751C3.30952 7.81883 3.19534 7.72966 3.11594 7.61257C3.03654 7.49549 2.99593 7.35642 2.99985 7.21501C2.99997 7.07412 3.04517 6.93696 3.12883 6.8236C3.2125 6.71024 3.33025 6.62663 3.46485 6.58501L14.0999 3.03751C14.222 2.98774 14.3559 2.97441 14.4854 2.99913C14.6149 3.02384 14.7345 3.08554 14.8297 3.17677C14.9249 3.268 14.9916 3.38486 15.0218 3.5132C15.052 3.64155 15.0444 3.7759 14.9999 3.90001Z" fill="#000000"/>
<path d="M15.8624 2.14501C15.5758 1.85293 15.2125 1.64792 14.8143 1.55369C14.4161 1.45946 13.9994 1.47985 13.6124 1.61251L2.99985 5.16001C2.57184 5.30011 2.19787 5.56962 1.92957 5.93133C1.66127 6.29305 1.51187 6.72913 1.50199 7.17938C1.49211 7.62964 1.62224 8.07185 1.87442 8.44499C2.12661 8.81812 2.4884 9.10377 2.90985 9.26251L6.83985 10.7625C6.92934 10.7967 7.01082 10.849 7.07921 10.9161C7.1476 10.9832 7.20143 11.0637 7.23735 11.1525L8.73735 15.09C8.89004 15.5055 9.16712 15.8638 9.53083 16.1161C9.89454 16.3685 10.3272 16.5025 10.7699 16.5H10.8224C11.2731 16.4918 11.71 16.3428 12.0718 16.0738C12.4336 15.8048 12.7022 15.4293 12.8399 15L16.3874 4.37251C16.5164 3.98921 16.5356 3.57746 16.4428 3.18382C16.35 2.79018 16.149 2.43035 15.8624 2.14501ZM14.9999 3.90001L11.4149 14.535C11.3732 14.6696 11.2896 14.7874 11.1763 14.871C11.0629 14.9547 10.9257 14.9999 10.7849 15C10.6448 15.0023 10.5074 14.9619 10.3908 14.8842C10.2742 14.8065 10.1841 14.6952 10.1324 14.565L8.63235 10.6275C8.52361 10.3414 8.3559 10.0814 8.14011 9.86429C7.92433 9.64722 7.66531 9.47796 7.37985 9.36751L3.44235 7.86751C3.30952 7.81883 3.19534 7.72966 3.11594 7.61257C3.03654 7.49549 2.99593 7.35642 2.99985 7.21501C2.99997 7.07412 3.04517 6.93696 3.12883 6.8236C3.2125 6.71024 3.33025 6.62663 3.46485 6.58501L14.0999 3.03751C14.222 2.98774 14.3559 2.97441 14.4854 2.99913C14.6149 3.02384 14.7345 3.08554 14.8297 3.17677C14.9249 3.268 14.9916 3.38486 15.0218 3.5132C15.052 3.64155 15.0444 3.7759 14.9999 3.90001Z" stroke=""/>
</svg>
