<svg width="26" height="26" viewBox="0 0 26 26" fill="none" xmlns="http://www.w3.org/2000/svg">
<path d="M8.668 13.198C9.35867 13.198 9.97 13.0953 10.502 12.89C11.0433 12.6847 11.468 12.3907 11.776 12.008C12.084 11.6253 12.238 11.1867 12.238 10.692C12.238 10.2067 12.1167 9.768 11.874 9.376C11.6407 8.97467 11.3 8.65267 10.852 8.41C10.404 8.16733 9.86267 8.046 9.228 8.046C8.63067 8.046 8.10333 8.16733 7.646 8.41C7.18867 8.64333 6.82933 8.96533 6.568 9.376C6.316 9.78667 6.19 10.2627 6.19 10.804H7.744C7.744 10.412 7.884 10.09 8.164 9.838C8.45333 9.57667 8.81267 9.446 9.242 9.446C9.53133 9.446 9.774 9.502 9.97 9.614C10.166 9.726 10.3153 9.88467 10.418 10.09C10.5207 10.286 10.572 10.5147 10.572 10.776C10.572 10.9813 10.5253 11.182 10.432 11.378C10.348 11.5647 10.222 11.728 10.054 11.868C9.89533 12.008 9.69933 12.12 9.466 12.204C9.23267 12.2787 8.96667 12.316 8.668 12.316V13.198ZM9.158 18.168C9.83 18.168 10.418 18.0513 10.922 17.818C11.426 17.5847 11.818 17.258 12.098 16.838C12.378 16.418 12.518 15.9327 12.518 15.382C12.518 14.8873 12.42 14.4673 12.224 14.122C12.028 13.7673 11.7527 13.4827 11.398 13.268C11.0527 13.044 10.6467 12.8807 10.18 12.778C9.71333 12.666 9.20933 12.61 8.668 12.61V13.548C8.99467 13.548 9.29333 13.5853 9.564 13.66C9.83467 13.7347 10.0633 13.842 10.25 13.982C10.446 14.122 10.5953 14.2947 10.698 14.5C10.8007 14.7053 10.852 14.9387 10.852 15.2C10.852 15.5267 10.782 15.8067 10.642 16.04C10.502 16.264 10.306 16.4367 10.054 16.558C9.81133 16.6793 9.522 16.74 9.186 16.74C8.85933 16.74 8.56067 16.6793 8.29 16.558C8.01933 16.4273 7.80467 16.25 7.646 16.026C7.49667 15.7927 7.422 15.5173 7.422 15.2H5.77C5.77 15.6013 5.84933 15.984 6.008 16.348C6.16667 16.7027 6.39067 17.02 6.68 17.3C6.96933 17.5707 7.324 17.7853 7.744 17.944C8.164 18.0933 8.63533 18.168 9.158 18.168ZM16.1744 13.198C16.8651 13.198 17.4764 13.0953 18.0084 12.89C18.5497 12.6847 18.9744 12.3907 19.2824 12.008C19.5904 11.6253 19.7444 11.1867 19.7444 10.692C19.7444 10.2067 19.6231 9.768 19.3804 9.376C19.1471 8.97467 18.8064 8.65267 18.3584 8.41C17.9104 8.16733 17.3691 8.046 16.7344 8.046C16.1371 8.046 15.6097 8.16733 15.1524 8.41C14.6951 8.64333 14.3357 8.96533 14.0744 9.376C13.8224 9.78667 13.6964 10.2627 13.6964 10.804H15.2504C15.2504 10.412 15.3904 10.09 15.6704 9.838C15.9597 9.57667 16.3191 9.446 16.7484 9.446C17.0377 9.446 17.2804 9.502 17.4764 9.614C17.6724 9.726 17.8217 9.88467 17.9244 10.09C18.0271 10.286 18.0784 10.5147 18.0784 10.776C18.0784 10.9813 18.0317 11.182 17.9384 11.378C17.8544 11.5647 17.7284 11.728 17.5604 11.868C17.4017 12.008 17.2057 12.12 16.9724 12.204C16.7391 12.2787 16.4731 12.316 16.1744 12.316V13.198ZM16.6644 18.168C17.3364 18.168 17.9244 18.0513 18.4284 17.818C18.9324 17.5847 19.3244 17.258 19.6044 16.838C19.8844 16.418 20.0244 15.9327 20.0244 15.382C20.0244 14.8873 19.9264 14.4673 19.7304 14.122C19.5344 13.7673 19.2591 13.4827 18.9044 13.268C18.5591 13.044 18.1531 12.8807 17.6864 12.778C17.2197 12.666 16.7157 12.61 16.1744 12.61V13.548C16.5011 13.548 16.7997 13.5853 17.0704 13.66C17.3411 13.7347 17.5697 13.842 17.7564 13.982C17.9524 14.122 18.1017 14.2947 18.2044 14.5C18.3071 14.7053 18.3584 14.9387 18.3584 15.2C18.3584 15.5267 18.2884 15.8067 18.1484 16.04C18.0084 16.264 17.8124 16.4367 17.5604 16.558C17.3177 16.6793 17.0284 16.74 16.6924 16.74C16.3657 16.74 16.0671 16.6793 15.7964 16.558C15.5257 16.4273 15.3111 16.25 15.1524 16.026C15.0031 15.7927 14.9284 15.5173 14.9284 15.2H13.2764C13.2764 15.6013 13.3557 15.984 13.5144 16.348C13.6731 16.7027 13.8971 17.02 14.1864 17.3C14.4757 17.5707 14.8304 17.7853 15.2504 17.944C15.6704 18.0933 16.1417 18.168 16.6644 18.168Z" fill="white"/>
<circle cx="13" cy="13" r="12.25" stroke="white" stroke-width="1.5"/>
</svg>
