<svg width="31" height="31" viewBox="0 0 31 31" fill="none" xmlns="http://www.w3.org/2000/svg">
<path d="M10.3224 15.8355C11.1117 15.8355 11.8104 15.7182 12.4184 15.4835C13.037 15.2489 13.5224 14.9129 13.8744 14.4755C14.2264 14.0382 14.4024 13.5369 14.4024 12.9715C14.4024 12.4169 14.2637 11.9155 13.9864 11.4675C13.7197 11.0089 13.3304 10.6409 12.8184 10.3635C12.3064 10.0862 11.6877 9.94753 10.9624 9.94753C10.2797 9.94753 9.67704 10.0862 9.15437 10.3635C8.6317 10.6302 8.22104 10.9982 7.92237 11.4675C7.63437 11.9369 7.49037 12.4809 7.49037 13.0995H9.26637C9.26637 12.6515 9.42637 12.2835 9.74637 11.9955C10.077 11.6969 10.4877 11.5475 10.9784 11.5475C11.309 11.5475 11.5864 11.6115 11.8104 11.7395C12.0344 11.8675 12.205 12.0489 12.3224 12.2835C12.4397 12.5075 12.4984 12.7689 12.4984 13.0675C12.4984 13.3022 12.445 13.5315 12.3384 13.7555C12.2424 13.9689 12.0984 14.1555 11.9064 14.3155C11.725 14.4755 11.501 14.6035 11.2344 14.6995C10.9677 14.7849 10.6637 14.8275 10.3224 14.8275V15.8355ZM10.8824 21.5155C11.6504 21.5155 12.3224 21.3822 12.8984 21.1155C13.4744 20.8489 13.9224 20.4755 14.2424 19.9955C14.5624 19.5155 14.7224 18.9609 14.7224 18.3315C14.7224 17.7662 14.6104 17.2862 14.3864 16.8915C14.1624 16.4862 13.8477 16.1609 13.4424 15.9155C13.0477 15.6595 12.5837 15.4729 12.0504 15.3555C11.517 15.2275 10.941 15.1635 10.3224 15.1635V16.2355C10.6957 16.2355 11.037 16.2782 11.3464 16.3635C11.6557 16.4489 11.917 16.5715 12.1304 16.7315C12.3544 16.8915 12.525 17.0889 12.6424 17.3235C12.7597 17.5582 12.8184 17.8249 12.8184 18.1235C12.8184 18.4969 12.7384 18.8169 12.5784 19.0835C12.4184 19.3395 12.1944 19.5369 11.9064 19.6755C11.629 19.8142 11.2984 19.8835 10.9144 19.8835C10.541 19.8835 10.1997 19.8142 9.89037 19.6755C9.58104 19.5262 9.3357 19.3235 9.15437 19.0675C8.9837 18.8009 8.89837 18.4862 8.89837 18.1235H7.01037C7.01037 18.5822 7.10104 19.0195 7.28237 19.4355C7.4637 19.8409 7.7197 20.2035 8.05037 20.5235C8.38104 20.8329 8.78637 21.0782 9.26637 21.2595C9.74637 21.4302 10.285 21.5155 10.8824 21.5155ZM18.9011 15.8355C19.6905 15.8355 20.3891 15.7182 20.9971 15.4835C21.6158 15.2489 22.1011 14.9129 22.4531 14.4755C22.8051 14.0382 22.9811 13.5369 22.9811 12.9715C22.9811 12.4169 22.8425 11.9155 22.5651 11.4675C22.2985 11.0089 21.9091 10.6409 21.3971 10.3635C20.8851 10.0862 20.2665 9.94753 19.5411 9.94753C18.8585 9.94753 18.2558 10.0862 17.7331 10.3635C17.2105 10.6302 16.7998 10.9982 16.5011 11.4675C16.2131 11.9369 16.0691 12.4809 16.0691 13.0995H17.8451C17.8451 12.6515 18.0051 12.2835 18.3251 11.9955C18.6558 11.6969 19.0665 11.5475 19.5571 11.5475C19.8878 11.5475 20.1651 11.6115 20.3891 11.7395C20.6131 11.8675 20.7838 12.0489 20.9011 12.2835C21.0185 12.5075 21.0771 12.7689 21.0771 13.0675C21.0771 13.3022 21.0238 13.5315 20.9171 13.7555C20.8211 13.9689 20.6771 14.1555 20.4851 14.3155C20.3038 14.4755 20.0798 14.6035 19.8131 14.6995C19.5465 14.7849 19.2425 14.8275 18.9011 14.8275V15.8355ZM19.4611 21.5155C20.2291 21.5155 20.9011 21.3822 21.4771 21.1155C22.0531 20.8489 22.5011 20.4755 22.8211 19.9955C23.1411 19.5155 23.3011 18.9609 23.3011 18.3315C23.3011 17.7662 23.1891 17.2862 22.9651 16.8915C22.7411 16.4862 22.4265 16.1609 22.0211 15.9155C21.6265 15.6595 21.1625 15.4729 20.6291 15.3555C20.0958 15.2275 19.5198 15.1635 18.9011 15.1635V16.2355C19.2745 16.2355 19.6158 16.2782 19.9251 16.3635C20.2345 16.4489 20.4958 16.5715 20.7091 16.7315C20.9331 16.8915 21.1038 17.0889 21.2211 17.3235C21.3385 17.5582 21.3971 17.8249 21.3971 18.1235C21.3971 18.4969 21.3171 18.8169 21.1571 19.0835C20.9971 19.3395 20.7731 19.5369 20.4851 19.6755C20.2078 19.8142 19.8771 19.8835 19.4931 19.8835C19.1198 19.8835 18.7785 19.8142 18.4691 19.6755C18.1598 19.5262 17.9145 19.3235 17.7331 19.0675C17.5625 18.8009 17.4771 18.4862 17.4771 18.1235H15.5891C15.5891 18.5822 15.6798 19.0195 15.8611 19.4355C16.0425 19.8409 16.2985 20.2035 16.6291 20.5235C16.9598 20.8329 17.3651 21.0782 17.8451 21.2595C18.3251 21.4302 18.8638 21.5155 19.4611 21.5155Z" fill="#BD00FF"/>
<circle cx="15.1304" cy="15.3235" r="14.25" stroke="#BD00FF" stroke-width="1.5"/>
</svg>
